<svg xmlns="http://www.w3.org/2000/svg"  viewBox="0 0 64 64" width="64px" height="64px"><linearGradient id="YSGISh7idOPKdlMQSeqp~a" x1="37.5" x2="37.5" y1="14.083" y2="48.838" gradientUnits="userSpaceOnUse" spreadMethod="reflect"><stop offset="0" stop-color="#1a6dff"/><stop offset="1" stop-color="#c822ff"/></linearGradient><path fill="url(#YSGISh7idOPKdlMQSeqp~a)" d="M17.102,49.002c-1.872,0-3.456-0.031-4.651-0.065l-0.408-0.031 c-0.618-0.142-1.047-0.654-1.042-1.247c0-0.664,0.592-1.255,1.267-1.255C42.152,46.403,53,37.191,53,31 c0-9.552-16.304-14.549-25.043-14.549c-0.727,0-1.234-0.52-1.234-1.263c0-0.591,0.447-1.188,1.301-1.188 c0.953,0.047,23.797,0.03,32.564,8.781c2.267,2.263,3.415,4.93,3.412,7.926c-0.003,3.205-1.266,6.053-3.752,8.466 C51.331,47.825,28.704,49.002,17.102,49.002z M42.15,17.286C49.038,19.965,55,24.539,55,31c0,5.616-6.005,11.52-18.799,14.804 c8.945-1.194,17.987-3.538,22.654-8.066c2.113-2.051,3.142-4.351,3.145-7.032c0.003-2.479-0.921-4.607-2.824-6.507 C55.394,20.422,48.495,18.385,42.15,17.286z"/><linearGradient id="YSGISh7idOPKdlMQSeqp~b" x1="21.998" x2="21.998" y1="14.083" y2="48.838" gradientUnits="userSpaceOnUse" spreadMethod="reflect"><stop offset="0" stop-color="#1a6dff"/><stop offset="1" stop-color="#c822ff"/></linearGradient><path fill="url(#YSGISh7idOPKdlMQSeqp~b)" d="M22.019,40C7.954,40,1.578,36.998,0.3,34.189c-0.343-0.606-0.405-1.431-0.136-2.188 L6.67,17.034C6.942,16.406,7.54,16,8.191,16h9.325c0.549,0,1.063,0.283,1.376,0.759c0.345,0.524,0.401,1.186,0.151,1.768 c-0.662,1.534-1.94,4.234-2.967,6.404c-0.118,0.25-0.232,0.491-0.341,0.721c1.87-0.308,4.659-0.668,7.075-0.668 C33.341,24.983,44,27.629,44,32.685C44,38.084,32.159,40,22.019,40z M8.431,18L2.023,32.735c-0.051,0.148-0.037,0.379,0.06,0.553 C2.851,34.966,7.948,38,22.019,38C33.223,38,42,35.665,42,32.685c0-2.696-7.881-5.701-19.188-5.701 c-3.422,0-7.767,0.786-8.568,0.986l-2.019,0.506l0.866-1.892c0.237-0.52,0.671-1.436,1.179-2.509 c0.963-2.035,2.147-4.539,2.822-6.075H8.431z"/><linearGradient id="YSGISh7idOPKdlMQSeqp~c" x1="22" x2="22" y1="31" y2="34" gradientUnits="userSpaceOnUse" spreadMethod="reflect"><stop offset="0" stop-color="#6dc7ff"/><stop offset="1" stop-color="#e6abff"/></linearGradient><path fill="url(#YSGISh7idOPKdlMQSeqp~c)" d="M22.017,34C15.837,34,12,33.157,12,32.484C12,31.876,15.837,31,22.017,31S32,31.876,32,32.484 C32,33.157,28.197,34,22.017,34z"/></svg>
